<svg xmlns="http://www.w3.org/2000/svg" viewBox="0 -256 1792 1792"><path d="M377.492 121.492q0-26-19-45t-45-19q-26 0-45 19t-19 45q0 26 19 45t45 19q26 0 45-19t19-45zm1152 576q0-35-21.5-81t-53.5-47q15-17 25-47.5t10-55.5q0-69-53-119 18-32 18-69t-17.5-73.5q-17.5-36.5-47.5-52.5 5-30 5-56 0-85-49-126t-136-41h-128q-131 0-342 73-5 2-29 10.5t-35.5 12.5q-11.5 4-35 11.5t-38 11q-14.5 3.5-33 6.5t-31.5 3h-32v640h32q16 0 35.5 9t40 27q20.5 18 38.5 35.5t40 44q22 26.5 34.5 42.5t31.5 41q19 25 23 30 55 68 77 91 41 43 59.5 109.5t30.5 125.5q12 59 38 85 96 0 128-47t32-145q0-59-48-160.5t-48-159.5h352q50 0 89-38.5t39-89.5zm128 1q0 103-76 179t-180 76h-176q48 99 48 192 0 118-35 186-35 69-102 101.5t-151 32.5q-51 0-90-37-34-33-54-82t-25.5-90.5q-5.5-41.5-17.5-84.5t-31-64q-48-50-107-127-101-131-137-155h-274q-53 0-90.5-37.5t-37.5-90.5v-640q0-53 37.5-90.5t90.5-37.5h288q22 0 138-40 128-44 223-66t200-22h112q140 0 226.5 79t85.5 216v5q60 77 60 178 0 22-3 43 38 67 38 144 0 36-9 69 49 74 49 163z" fill="currentColor"/></svg>